<?xml version="1.0" encoding="iso-8859-1"?>
<!-- Generator: Adobe Illustrator 19.0.0, SVG Export Plug-In . SVG Version: 6.00 Build 0)  -->
<svg version="1.1" id="Capa_1" xmlns="http://www.w3.org/2000/svg" xmlns:xlink="http://www.w3.org/1999/xlink" x="0px" y="0px"
	 viewBox="0 0 512 512" style="enable-background:new 0 0 512 512;" xml:space="preserve">
<g>
	<g>
		<g>
			<path d="M444.862,109.779L338.221,3.138C336.29,1.201,333.621,0,330.667,0h-224C83.146,0,64,19.135,64,42.667v202.667
				c0,2.833,1.125,5.542,3.125,7.542l42.667,42.667c4.167,4.167,10.917,4.167,15.083,0l56.458-56.458l77.792,77.792
				c2.083,2.083,4.813,3.125,7.542,3.125c2.729,0,5.458-1.042,7.542-3.125l57.813-57.813l56.729,37.813
				c4.25,2.833,9.854,2.271,13.458-1.333l42.667-42.667c2-2,3.125-4.708,3.125-7.542v-128
				C448,114.379,446.799,111.71,444.862,109.779z M362.667,106.667c-11.771,0-21.333-9.573-21.333-21.333V36.417l70.25,70.25
				H362.667z"/>
			<path d="M441.417,299.479c-3.958-1.677-8.583-0.74-11.625,2.313l-36.479,36.479l-56.729-37.813
				c-4.25-2.833-9.854-2.26-13.458,1.333l-56.458,56.458l-77.792-77.792c-4.167-4.167-10.917-4.167-15.083,0l-56.458,56.458
				l-35.125-35.125c-3.063-3.052-7.646-3.979-11.625-2.313c-3.979,1.646-6.583,5.542-6.583,9.854v160
				C64,492.865,83.146,512,106.667,512h298.667C428.854,512,448,492.865,448,469.333v-160
				C448,305.021,445.396,301.125,441.417,299.479z"/>
		</g>
	</g>
</g>
<g>
</g>
<g>
</g>
<g>
</g>
<g>
</g>
<g>
</g>
<g>
</g>
<g>
</g>
<g>
</g>
<g>
</g>
<g>
</g>
<g>
</g>
<g>
</g>
<g>
</g>
<g>
</g>
<g>
</g>
</svg>
